<svg width="20" height="16" viewBox="0 0 20 16" fill="none" xmlns="http://www.w3.org/2000/svg">
<path fill-rule="evenodd" clip-rule="evenodd" d="M7 0H6V2H3C2.20435 2 1.44129 2.31607 0.87868 2.87868C0.316071 3.44129 0 4.20435 0 5V11C0 11.7956 0.316071 12.5587 0.87868 13.1213C1.44129 13.6839 2.20435 14 3 14H6V16H7V0ZM6 3V13H3C2.73478 13 2 13 1.5 12.5C1 12 1 11.2652 1 11V5C1 4.73478 0.87868 4.12132 1.5 3.5C2 3 2.73478 3 3 3H6Z" fill="black"/>
<path d="M17 13H10V14H17C17.7956 14 18.5587 13.6839 19.1213 13.1213C19.6839 12.5587 20 11.7956 20 11V5C20 4.20435 19.6839 3.44129 19.1213 2.87868C18.5587 2.31607 17.7956 2 17 2H10V3H17C17.2652 3 17.9543 2.95433 18.5 3.5C19 4 19 4.73478 19 5V11C19 11.2652 19 12 18.5 12.5C18 13 17.2652 13 17 13Z" fill="black"/>
</svg>
